<?xml version="1.0" standalone="no"?>
<!DOCTYPE svg PUBLIC "-//W3C//DTD SVG 20010904//EN"
 "http://www.w3.org/TR/2001/REC-SVG-20010904/DTD/svg10.dtd">
<svg version="1.0" xmlns="http://www.w3.org/2000/svg"
 width="1044.000000pt" height="1044.000000pt" viewBox="0 0 1044.000000 1044.000000"
 preserveAspectRatio="xMidYMid meet">
<metadata>
Created by potrace 1.14, written by Peter Selinger 2001-2017
</metadata>
<g transform="translate(0.000000,1044.000000) scale(0.100000,-0.100000)"
fill="#000000" stroke="none">
<path d="M7360 10413 c-2229 -108 -3870 -271 -4935 -489 -529 -109 -880 -222
-1101 -354 -384 -231 -630 -555 -754 -996 -52 -186 -65 -301 -64 -564 2 -266
-1 -247 113 -804 39 -192 70 -350 69 -352 -2 -1 -32 -16 -68 -33 -140 -66
-210 -141 -210 -222 0 -91 21 -129 328 -582 98 -145 100 -149 107 -220 3 -39
10 -98 15 -130 7 -46 5 -73 -10 -134 -30 -114 -27 -206 10 -297 99 -250 267
-631 675 -1531 221 -486 260 -572 535 -1170 79 -170 169 -366 200 -435 32 -69
128 -278 215 -465 267 -577 344 -743 437 -944 121 -264 155 -319 262 -426 104
-103 192 -156 341 -202 85 -26 100 -27 290 -27 219 -1 271 6 498 69 325 89
669 255 1237 597 2442 1472 3944 2463 4103 2708 28 44 66 409 91 891 7 141 16
261 20 267 28 46 139 761 190 1227 63 574 70 692 71 1165 0 380 -3 462 -18
560 -25 163 -60 293 -105 396 -21 49 -67 161 -102 248 -161 404 -375 783 -637
1131 -174 231 -262 332 -425 491 -326 318 -683 528 -1043 615 -78 18 -150 21
-335 12z m390 -265 c644 -218 1249 -796 1666 -1593 68 -130 204 -419 204 -434
0 -3 -141 -6 -312 -6 -233 0 -355 -5 -478 -18 -840 -92 -1958 -409 -3315 -942
-691 -271 -1213 -582 -1594 -950 -334 -323 -577 -721 -695 -1137 -112 -394
-146 -835 -105 -1358 27 -349 94 -788 229 -1510 55 -294 99 -540 98 -547 -3
-11 -191 245 -432 586 -898 1273 -1498 2247 -1793 2910 -68 155 -126 308 -120
324 1 5 27 -27 56 -72 85 -129 155 -178 272 -188 82 -8 139 10 257 79 57 33
107 56 112 52 4 -5 15 -52 24 -104 45 -256 171 -869 211 -1027 51 -201 83
-276 125 -298 107 -55 208 51 152 161 -26 53 -60 187 -131 519 -51 236 -152
769 -163 855 -3 22 8 31 93 80 128 73 163 102 196 157 36 61 35 123 -1 189
-15 27 -123 171 -241 319 -241 304 -230 282 -229 465 1 160 42 254 137 317 23
16 50 44 60 64 15 32 16 41 5 74 -65 193 -353 1 -409 -272 -7 -35 -16 -63 -20
-63 -4 0 -35 35 -69 78 -69 86 -120 125 -192 147 -121 36 -229 28 -366 -26
-41 -17 -78 -26 -82 -22 -7 8 -20 120 -40 363 -6 63 -19 174 -30 245 -73 489
-39 805 120 1113 121 236 341 456 607 606 593 335 2374 628 5093 840 173 14
387 30 475 36 88 6 210 15 270 20 173 13 236 8 355 -32z m1783 -2219 c65 -5
129 -14 143 -19 31 -12 86 -123 113 -231 45 -176 56 -312 55 -704 0 -366 -11
-575 -49 -955 -35 -337 -131 -1040 -171 -1245 -54 -277 -131 -434 -283 -577
-114 -107 -1247 -905 -1848 -1302 -716 -472 -1249 -784 -1816 -1061 -548 -268
-962 -417 -1352 -486 -109 -20 -163 -23 -330 -23 -139 1 -215 5 -250 15 l-50
14 -12 65 c-7 36 -37 200 -68 365 -229 1220 -255 1385 -307 1885 -20 192 -17
742 5 902 95 700 368 1203 893 1642 377 316 810 551 1514 823 1412 546 2495
835 3360 896 108 8 344 6 453 -4z"/>
<path d="M6950 9950 c-1288 -24 -2436 -193 -3735 -550 -408 -111 -507 -148
-577 -214 -44 -40 -38 -78 37 -226 164 -326 329 -555 443 -614 63 -33 110 -23
489 103 1142 381 2263 631 3423 765 431 50 1129 99 1261 89 52 -4 78 -2 83 6
4 6 -4 35 -17 64 -19 40 -79 107 -263 294 -296 300 -270 286 -549 289 -104 1
-372 -2 -595 -6z"/>
<path d="M8210 8994 c-25 -2 -173 -11 -330 -19 -611 -33 -1053 -76 -1505 -150
-702 -114 -1364 -276 -2065 -507 -298 -98 -704 -248 -783 -290 -72 -39 -137
-107 -137 -146 0 -38 50 -139 154 -311 127 -212 217 -334 325 -442 170 -168
218 -175 466 -64 83 37 254 109 380 160 1308 531 2657 865 4070 1010 253 26
270 35 241 123 -20 60 -37 85 -222 323 -228 292 -254 311 -439 314 -60 2 -130
1 -155 -1z"/>
</g>
</svg>
